<svg width="43" height="43" viewBox="0 0 43 43" fill="none" xmlns="http://www.w3.org/2000/svg">
<path d="M21.5 43C33.3741 43 43 33.3741 43 21.5C43 9.62588 33.3741 0 21.5 0C9.62588 0 0 9.62588 0 21.5C0 33.3741 9.62588 43 21.5 43Z" fill="#2B463C"/>
<path d="M18.3465 24.6895H23.5683L25.5265 32H16.3884L18.3465 24.6895Z" fill="#DA983C" fill-opacity="0.6" stroke="white" stroke-linecap="round" stroke-linejoin="round"/>
<path d="M21.1645 10.7955V18.8618" stroke="white" stroke-linecap="round" stroke-linejoin="round"/>
<path d="M18.7445 24.5083V24.9923C18.7445 25.5057 18.9995 25.9981 19.4533 26.3612C19.9071 26.7242 20.5226 26.9282 21.1644 26.9282C21.8062 26.9282 22.4218 26.7242 22.8756 26.3612C23.3294 25.9981 23.5844 25.5057 23.5844 24.9923V24.5083" stroke="white" stroke-linecap="round" stroke-linejoin="round"/>
<path d="M18.9927 19.2651C18.9927 19.1582 19.0385 19.0556 19.12 18.9799C19.2014 18.9043 19.3119 18.8618 19.4271 18.8618H22.9018C23.017 18.8618 23.1275 18.9043 23.2089 18.9799C23.2904 19.0556 23.3362 19.1582 23.3362 19.2651V19.6685C24.3652 20.0666 25.2442 20.7386 25.8626 21.5999C26.4809 22.4612 26.8109 23.4731 26.8109 24.5083H15.518C15.518 23.4731 15.848 22.4612 16.4663 21.5999C17.0847 20.7386 17.9637 20.0666 18.9927 19.6685V19.2651Z" stroke="white" stroke-linecap="round" stroke-linejoin="round"/>
<path d="M33.264 20.4751L21.1644 10.7955" stroke="white" stroke-linecap="round" stroke-linejoin="round"/>
<path d="M21.1645 10.7955L9.90381 19.8621" stroke="white" stroke-linecap="round" stroke-linejoin="round"/>
<path d="M30.8441 31.768L30.8441 15.6353" stroke="white" stroke-linecap="round" stroke-linejoin="round"/>
<path d="M13.453 31.9293L30.4892 31.9293" stroke="white" stroke-linecap="round" stroke-linejoin="round"/>
</svg>
