<svg width="40" height="40" viewBox="0 0 40 40" fill="none" xmlns="http://www.w3.org/2000/svg">
<path d="M20 0.5C30.7696 0.5 39.5 9.23045 39.5 20C39.5 30.7696 30.7696 39.5 20 39.5C9.23045 39.5 0.5 30.7696 0.5 20C0.5 9.23045 9.23045 0.5 20 0.5Z" stroke="#2B463C"/>
<path opacity="0.4" d="M16.8516 22.3572H21.9623L23.8788 29.6748H14.9351L16.8516 22.3572Z" fill="#DA983C"/>
<path d="M19.4448 9.18182V17.1277" stroke="#2B463C" stroke-linecap="round" stroke-linejoin="round"/>
<path d="M17.0611 22.6898V23.1665C17.0611 23.6723 17.3122 24.1574 17.7592 24.515C18.2063 24.8726 18.8126 25.0735 19.4448 25.0735C20.077 25.0735 20.6833 24.8726 21.1304 24.515C21.5774 24.1574 21.8286 23.6723 21.8286 23.1665V22.6898" stroke="#2B463C" stroke-linecap="round" stroke-linejoin="round"/>
<path d="M17.3055 17.525C17.3055 17.4196 17.3506 17.3186 17.4309 17.2441C17.5111 17.1695 17.6199 17.1277 17.7334 17.1277H21.1562C21.2697 17.1277 21.3785 17.1695 21.4588 17.2441C21.539 17.3186 21.5841 17.4196 21.5841 17.525V17.9223C22.5977 18.3145 23.4636 18.9765 24.0728 19.8249C24.6819 20.6733 25.0069 21.6701 25.0069 22.6898H13.8827C13.8827 21.6701 14.2077 20.6733 14.8169 19.8249C15.426 18.9765 16.2919 18.3145 17.3055 17.9223V17.525Z" stroke="#2B463C" stroke-linecap="round" stroke-linejoin="round"/>
<path d="M31.3636 18.7169L19.4448 9.18183" stroke="#2B463C" stroke-linecap="round" stroke-linejoin="round"/>
<path d="M19.4448 9.18182L8.35238 18.113" stroke="#2B463C" stroke-linecap="round" stroke-linejoin="round"/>
<path d="M28.9799 29.8411L28.9799 13.9493" stroke="#2B463C" stroke-linecap="round" stroke-linejoin="round"/>
<path d="M11.8486 30L28.6302 30" stroke="#2B463C" stroke-linecap="round" stroke-linejoin="round"/>
</svg>
